<?xml version="1.0" encoding="UTF-8" standalone="no"?>
<svg
   width="916"
   height="917"
   viewBox="0 0 916 917"
   fill="none"
   version="1.1"
   id="svg488"
   sodipodi:docname="test.svg"
   xmlns:inkscape="http://www.inkscape.org/namespaces/inkscape"
   xmlns:sodipodi="http://sodipodi.sourceforge.net/DTD/sodipodi-0.dtd"
   xmlns="http://www.w3.org/2000/svg"
   xmlns:svg="http://www.w3.org/2000/svg">
  <defs
     id="defs492" />
  <sodipodi:namedview
     id="namedview490"
     pagecolor="#ffffff"
     bordercolor="#000000"
     borderopacity="0.25"
     inkscape:showpageshadow="2"
     inkscape:pageopacity="0.0"
     inkscape:pagecheckerboard="0"
     inkscape:deskcolor="#d1d1d1"
     showgrid="false" />
  <path
     d="m 602,98 h 72"
     stroke="#000000"
     stroke-width="4"
     id="path248" />
  <path
     d="m 482,98 h 72"
     stroke="#000000"
     stroke-width="4"
     id="path250" />
  <path
     d="M 2,98 H 74"
     stroke="#000000"
     stroke-width="4"
     id="path252" />
  <path
     d="m 2,122 72,72"
     stroke="#000000"
     stroke-width="4"
     id="path254" />
  <path
     d="m 242,2 72,72"
     stroke="#000000"
     stroke-width="4"
     id="path256" />
  <path
     d="m 362,242 72,72"
     stroke="#000000"
     stroke-width="4"
     id="path258" />
  <path
     d="m 602,362 72,72"
     stroke="#000000"
     stroke-width="4"
     id="path260" />
  <path
     d="m 482,482 72,72"
     stroke="#000000"
     stroke-width="4"
     id="path262" />
  <path
     d="m 362,602 72,72"
     stroke="#000000"
     stroke-width="4"
     id="path264" />
  <path
     d="m 602,843 72,72"
     stroke="#000000"
     stroke-width="4"
     id="path266" />
  <path
     d="m 842,602 72,72"
     stroke="#000000"
     stroke-width="4"
     id="path268" />
  <path
     d="m 722,122 72,72"
     stroke="#000000"
     stroke-width="4"
     id="path270" />
  <path
     d="m 842,242 72,72"
     stroke="#000000"
     stroke-width="4"
     id="path272" />
  <path
     d="m 482,122 72,72"
     stroke="#000000"
     stroke-width="4"
     id="path274" />
  <path
     d="m 602,2 72,72"
     stroke="#000000"
     stroke-width="4"
     id="path276" />
  <path
     d="m 722,2 72,72"
     stroke="#000000"
     stroke-width="4"
     id="path278" />
  <path
     d="m 122,2 72,72"
     stroke="#000000"
     stroke-width="4"
     id="path280" />
  <path
     d="m 2,242 72,72"
     stroke="#000000"
     stroke-width="4"
     id="path282" />
  <path
     d="m 2,482 72,72"
     stroke="#000000"
     stroke-width="4"
     id="path284" />
  <path
     d="m 2,602 72,72"
     stroke="#000000"
     stroke-width="4"
     id="path286" />
  <path
     d="m 122,722 72,72"
     stroke="#000000"
     stroke-width="4"
     id="path288" />
  <path
     d="m 122,843 72,72"
     stroke="#000000"
     stroke-width="4"
     id="path290" />
  <path
     d="m 122,362 72,72"
     stroke="#000000"
     stroke-width="4"
     id="path292" />
  <path
     d="M 98,74 V 2"
     stroke="#000000"
     stroke-width="4"
     id="path294" />
  <path
     d="M 98,194 V 122"
     stroke="#000000"
     stroke-width="4"
     id="path296" />
  <path
     d="M 98,314 V 242"
     stroke="#000000"
     stroke-width="4"
     id="path298" />
  <path
     d="M 98,434 V 362"
     stroke="#000000"
     stroke-width="4"
     id="path300" />
  <path
     d="M 98,554 V 482"
     stroke="#000000"
     stroke-width="4"
     id="path302" />
  <path
     d="M 98,674 V 602"
     stroke="#000000"
     stroke-width="4"
     id="path304" />
  <path
     d="M 698,194 V 122"
     stroke="#000000"
     stroke-width="4"
     id="path306" />
  <path
     d="M 698,74 V 2"
     stroke="#000000"
     stroke-width="4"
     id="path308" />
  <path
     d="M 698,314 V 242"
     stroke="#000000"
     stroke-width="4"
     id="path310" />
  <path
     d="M 698,434 V 362"
     stroke="#000000"
     stroke-width="4"
     id="path312" />
  <path
     d="M 698,554 V 482"
     stroke="#000000"
     stroke-width="4"
     id="path314" />
  <path
     d="M 698,674 V 602"
     stroke="#000000"
     stroke-width="4"
     id="path316" />
  <path
     d="M 698,794 V 722"
     stroke="#000000"
     stroke-width="4"
     id="path318" />
  <path
     d="M 818,314 V 242"
     stroke="#000000"
     stroke-width="4"
     id="path320" />
  <path
     d="M 818,434 V 362"
     stroke="#000000"
     stroke-width="4"
     id="path322" />
  <path
     d="M 818,554 V 482"
     stroke="#000000"
     stroke-width="4"
     id="path324" />
  <path
     d="M 818,674 V 602"
     stroke="#000000"
     stroke-width="4"
     id="path326" />
  <path
     d="M 818,794 V 722"
     stroke="#000000"
     stroke-width="4"
     id="path328" />
  <path
     d="M 698,915 V 843"
     stroke="#000000"
     stroke-width="4"
     id="path330" />
  <path
     d="M 819,915 V 843"
     stroke="#000000"
     stroke-width="4"
     id="path332" />
  <path
     d="M 458,194 V 122"
     stroke="#000000"
     stroke-width="4"
     id="path334" />
  <path
     d="M 578,74 V 2"
     stroke="#000000"
     stroke-width="4"
     id="path336" />
  <path
     d="M 458,314 V 242"
     stroke="#000000"
     stroke-width="4"
     id="path338" />
  <path
     d="M 458,434 V 362"
     stroke="#000000"
     stroke-width="4"
     id="path340" />
  <path
     d="M 458,554 V 482"
     stroke="#000000"
     stroke-width="4"
     id="path342" />
  <path
     d="M 458,674 V 602"
     stroke="#000000"
     stroke-width="4"
     id="path344" />
  <path
     d="M 458,794 V 722"
     stroke="#000000"
     stroke-width="4"
     id="path346" />
  <path
     d="M 578,194 V 122"
     stroke="#000000"
     stroke-width="4"
     id="path348" />
  <path
     d="M 578,314 V 242"
     stroke="#000000"
     stroke-width="4"
     id="path350" />
  <path
     d="M 578,434 V 362"
     stroke="#000000"
     stroke-width="4"
     id="path352" />
  <path
     d="M 578,554 V 482"
     stroke="#000000"
     stroke-width="4"
     id="path354" />
  <path
     d="M 578,674 V 602"
     stroke="#000000"
     stroke-width="4"
     id="path356" />
  <path
     d="M 578,794 V 722"
     stroke="#000000"
     stroke-width="4"
     id="path358" />
  <path
     d="M 578,794 V 722"
     stroke="#000000"
     stroke-width="4"
     id="path360" />
  <path
     d="M 338,194 V 122"
     stroke="#000000"
     stroke-width="4"
     id="path362" />
  <path
     d="M 338,314 V 242"
     stroke="#000000"
     stroke-width="4"
     id="path364" />
  <path
     d="M 338,434 V 362"
     stroke="#000000"
     stroke-width="4"
     id="path366" />
  <path
     d="M 338,554 V 482"
     stroke="#000000"
     stroke-width="4"
     id="path368" />
  <path
     d="M 338,674 V 602"
     stroke="#000000"
     stroke-width="4"
     id="path370" />
  <path
     d="M 338,794 V 722"
     stroke="#000000"
     stroke-width="4"
     id="path372" />
  <path
     d="M 218,74 V 2"
     stroke="#000000"
     stroke-width="4"
     id="path374" />
  <path
     d="M 218,194 V 122"
     stroke="#000000"
     stroke-width="4"
     id="path376" />
  <path
     d="M 218,314 V 242"
     stroke="#000000"
     stroke-width="4"
     id="path378" />
  <path
     d="M 218,434 V 362"
     stroke="#000000"
     stroke-width="4"
     id="path380" />
  <path
     d="M 218,554 V 482"
     stroke="#000000"
     stroke-width="4"
     id="path382" />
  <path
     d="M 218,674 V 602"
     stroke="#000000"
     stroke-width="4"
     id="path384" />
  <path
     d="M 218,794 V 722"
     stroke="#000000"
     stroke-width="4"
     id="path386" />
  <path
     d="M 338,915 V 843"
     stroke="#000000"
     stroke-width="4"
     id="path388" />
  <path
     d="M 218,915 V 843"
     stroke="#000000"
     stroke-width="4"
     id="path390" />
  <path
     d="m 122,98 h 72"
     stroke="#000000"
     stroke-width="4"
     id="path392" />
  <path
     d="m 242,98 h 72"
     stroke="#000000"
     stroke-width="4"
     id="path394" />
  <path
     d="m 482,98 h 72"
     stroke="#000000"
     stroke-width="4"
     id="path396" />
  <path
     d="m 602,98 h 72"
     stroke="#000000"
     stroke-width="4"
     id="path398" />
  <path
     d="m 722,98 h 72"
     stroke="#000000"
     stroke-width="4"
     id="path400" />
  <path
     d="m 602,578 h 72"
     stroke="#000000"
     stroke-width="4"
     id="path402" />
  <path
     d="m 722,458 h 72"
     stroke="#000000"
     stroke-width="4"
     id="path404" />
  <path
     d="m 722,578 h 72"
     stroke="#000000"
     stroke-width="4"
     id="path406" />
  <path
     d="m 482,578 h 72"
     stroke="#000000"
     stroke-width="4"
     id="path408" />
  <path
     d="m 362,578 h 72"
     stroke="#000000"
     stroke-width="4"
     id="path410" />
  <path
     d="M 2,578 H 74"
     stroke="#000000"
     stroke-width="4"
     id="path412" />
  <path
     d="m 122,578 h 72"
     stroke="#000000"
     stroke-width="4"
     id="path414" />
  <path
     d="m 242,578 h 72"
     stroke="#000000"
     stroke-width="4"
     id="path416" />
  <path
     d="m 722,698 h 72"
     stroke="#000000"
     stroke-width="4"
     id="path418" />
  <path
     d="m 602,698 h 72"
     stroke="#000000"
     stroke-width="4"
     id="path420" />
  <path
     d="m 482,698 h 72"
     stroke="#000000"
     stroke-width="4"
     id="path422" />
  <path
     d="m 122,698 h 72"
     stroke="#000000"
     stroke-width="4"
     id="path424" />
  <path
     d="m 242,698 h 72"
     stroke="#000000"
     stroke-width="4"
     id="path426" />
  <path
     d="m 362,698 h 72"
     stroke="#000000"
     stroke-width="4"
     id="path428" />
  <path
     d="m 602,819 h 72"
     stroke="#000000"
     stroke-width="4"
     id="path430" />
  <path
     d="m 722,819 h 72"
     stroke="#000000"
     stroke-width="4"
     id="path432" />
  <path
     d="m 842,819 h 72"
     stroke="#000000"
     stroke-width="4"
     id="path434" />
  <path
     d="m 122,819 h 72"
     stroke="#000000"
     stroke-width="4"
     id="path436" />
  <path
     d="m 242,819 h 72"
     stroke="#000000"
     stroke-width="4"
     id="path438" />
  <path
     d="m 362,819 h 72"
     stroke="#000000"
     stroke-width="4"
     id="path440" />
  <path
     d="m 602,458 h 72"
     stroke="#000000"
     stroke-width="4"
     id="path442" />
  <path
     d="m 482,458 h 72"
     stroke="#000000"
     stroke-width="4"
     id="path444" />
  <path
     d="m 362,458 h 72"
     stroke="#000000"
     stroke-width="4"
     id="path446" />
  <path
     d="M 2,458 H 74"
     stroke="#000000"
     stroke-width="4"
     id="path448" />
  <path
     d="m 122,458 h 72"
     stroke="#000000"
     stroke-width="4"
     id="path450" />
  <path
     d="m 242,458 h 72"
     stroke="#000000"
     stroke-width="4"
     id="path452" />
  <path
     d="m 722,338 h 72"
     stroke="#000000"
     stroke-width="4"
     id="path454" />
  <path
     d="m 842,458 h 72"
     stroke="#000000"
     stroke-width="4"
     id="path456" />
  <path
     d="m 842,578 h 72"
     stroke="#000000"
     stroke-width="4"
     id="path458" />
  <path
     d="m 842,698 h 72"
     stroke="#000000"
     stroke-width="4"
     id="path460" />
  <path
     d="m 842,338 h 72"
     stroke="#000000"
     stroke-width="4"
     id="path462" />
  <path
     d="m 602,338 h 72"
     stroke="#000000"
     stroke-width="4"
     id="path464" />
  <path
     d="m 482,338 h 72"
     stroke="#000000"
     stroke-width="4"
     id="path466" />
  <path
     d="m 122,338 h 72"
     stroke="#000000"
     stroke-width="4"
     id="path468" />
  <path
     d="m 242,338 h 72"
     stroke="#000000"
     stroke-width="4"
     id="path470" />
  <path
     d="m 362,338 h 72"
     stroke="#000000"
     stroke-width="4"
     id="path472" />
  <path
     d="m 602,218 h 72"
     stroke="#000000"
     stroke-width="4"
     id="path474" />
  <path
     d="m 722,218 h 72"
     stroke="#000000"
     stroke-width="4"
     id="path476" />
  <path
     d="m 482,218 h 72"
     stroke="#000000"
     stroke-width="4"
     id="path478" />
  <path
     d="m 362,218 h 72"
     stroke="#000000"
     stroke-width="4"
     id="path480" />
  <path
     d="M 2,218 H 74"
     stroke="#000000"
     stroke-width="4"
     id="path482" />
  <path
     d="m 122,218 h 72"
     stroke="#000000"
     stroke-width="4"
     id="path484" />
  <path
     d="m 242,218 h 72"
     stroke="#000000"
     stroke-width="4"
     id="path486" />
</svg>
